<svg width="295" height="43" viewBox="0 0 295 43" fill="none" xmlns="http://www.w3.org/2000/svg">
<path d="M94.4412 0.370131V3.85993H89.4469V18.8766H85.8002V3.85993H80.8322V0.370131H94.4412ZM103.96 5.65771H107.369V18.8766H103.96V17.3168C102.938 18.6034 101.503 19.2468 99.6531 19.2468C97.8908 19.2468 96.3764 18.577 95.108 17.2375C93.8568 15.8803 93.2318 14.2236 93.2318 12.2672C93.2318 10.3108 93.8568 8.66278 95.108 7.32329C96.3764 5.96611 97.8908 5.28758 99.6531 5.28758C101.503 5.28758 102.938 5.93093 103.96 7.21754V5.65771ZM97.6712 14.9638C98.3583 15.6512 99.2303 15.9949 100.287 15.9949C101.344 15.9949 102.216 15.6512 102.903 14.9638C103.608 14.2589 103.96 13.36 103.96 12.2672C103.96 11.1744 103.608 10.2843 102.903 9.59695C102.216 8.89197 101.344 8.53943 100.287 8.53943C99.2303 8.53943 98.3583 8.89197 97.6712 9.59695C96.9842 10.2843 96.6406 11.1744 96.6406 12.2672C96.6406 13.36 96.9842 14.2589 97.6712 14.9638ZM120.872 5.65771V8.936H116.749V18.8766H113.34V8.936H109.165V5.65771H120.872ZM128.664 9.88777C130.162 9.88777 131.369 10.3019 132.284 11.1303C133.201 11.9411 133.658 13.025 133.658 14.3822C133.658 15.7394 133.201 16.8321 132.284 17.6605C131.369 18.4712 130.162 18.8766 128.664 18.8766H122.692V5.65771H126.101V9.88777H128.664ZM128.69 15.8627C129.166 15.8627 129.554 15.7305 129.853 15.4662C130.17 15.1842 130.329 14.8228 130.329 14.3822C130.329 13.9416 130.17 13.5802 129.853 13.2983C129.554 13.0163 129.166 12.8752 128.69 12.8752H126.101V15.8627H128.69ZM145.572 5.65771V18.8766H142.243V14.7523H141.053L138.015 18.8766H134.077L137.38 14.3558C136.535 14.0032 135.857 13.448 135.346 12.6902C134.853 11.9146 134.606 11.0863 134.606 10.205C134.606 8.97129 135.047 7.90493 135.927 7.00604C136.808 6.10715 137.962 5.65771 139.389 5.65771H145.572ZM139.653 8.69806C139.16 8.69806 138.746 8.84784 138.411 9.14751C138.094 9.42948 137.935 9.8173 137.935 10.3108C137.935 10.7867 138.094 11.1656 138.411 11.4476C138.746 11.7296 139.16 11.8706 139.653 11.8706H142.243V8.69806H139.653ZM157.347 5.65771H160.756V18.8766H157.347V13.8534H152.088V18.8766H148.679V5.65771H152.088V10.6545H157.347V5.65771ZM173.92 5.65771H177.329V18.8766H173.92V17.3168C172.898 18.6034 171.463 19.2468 169.613 19.2468C167.851 19.2468 166.336 18.577 165.068 17.2375C163.817 15.8803 163.192 14.2236 163.192 12.2672C163.192 10.3108 163.817 8.66278 165.068 7.32329C166.336 5.96611 167.851 5.28758 169.613 5.28758C171.463 5.28758 172.898 5.93093 173.92 7.21754V5.65771ZM167.631 14.9638C168.318 15.6512 169.19 15.9949 170.247 15.9949C171.304 15.9949 172.176 15.6512 172.863 14.9638C173.568 14.2589 173.92 13.36 173.92 12.2672C173.92 11.1744 173.568 10.2843 172.863 9.59695C172.176 8.89197 171.304 8.53943 170.247 8.53943C169.19 8.53943 168.318 8.89197 167.631 9.59695C166.944 10.2843 166.601 11.1744 166.601 12.2672C166.601 13.36 166.944 14.2589 167.631 14.9638ZM202.749 16.4708C200.882 18.3215 198.61 19.2468 195.932 19.2468C193.254 19.2468 190.981 18.3215 189.114 16.4708C187.264 14.6026 186.339 12.3201 186.339 9.62339C186.339 6.92672 187.264 4.65307 189.114 2.80242C190.981 0.934142 193.254 0 195.932 0C198.61 0 200.882 0.934142 202.749 2.80242C204.616 4.65307 205.55 6.92672 205.55 9.62339C205.55 12.3201 204.616 14.6026 202.749 16.4708ZM191.677 13.9856C192.823 15.1136 194.24 15.6777 195.932 15.6777C197.623 15.6777 199.041 15.1136 200.186 13.9856C201.332 12.84 201.904 11.3859 201.904 9.62339C201.904 7.8609 201.332 6.40681 200.186 5.26114C199.041 4.11549 197.623 3.54268 195.932 3.54268C194.24 3.54268 192.823 4.11549 191.677 5.26114C190.532 6.40681 189.96 7.8609 189.96 9.62339C189.96 11.3859 190.532 12.84 191.677 13.9856ZM218.775 5.65771V18.8766H215.366V8.936H211.72V13.3511C211.72 17.4402 209.861 19.2821 206.144 18.8766V15.6777C206.848 15.8539 207.386 15.7394 207.756 15.334C208.126 14.911 208.311 14.1883 208.311 13.1661V5.65771H218.775ZM224.744 13.6684C225.203 15.3251 226.445 16.1535 228.47 16.1535C229.774 16.1535 230.761 15.7129 231.43 14.8316L234.178 16.4179C232.875 18.3039 230.954 19.2468 228.417 19.2468C226.233 19.2468 224.48 18.5858 223.159 17.2639C221.838 15.942 221.177 14.2765 221.177 12.2672C221.177 10.2755 221.829 8.61875 223.132 7.29685C224.436 5.95737 226.11 5.28758 228.153 5.28758C230.091 5.28758 231.686 5.95737 232.936 7.29685C234.205 8.63634 234.839 10.2932 234.839 12.2672C234.839 12.7078 234.795 13.1749 234.707 13.6684H224.744ZM224.691 11.0246H231.43C231.237 10.1257 230.831 9.45591 230.214 9.01532C229.616 8.57472 228.929 8.35437 228.153 8.35437C227.237 8.35437 226.48 8.59231 225.881 9.06819C225.282 9.52648 224.886 10.1786 224.691 11.0246ZM239.439 3.96568V1.00464H247.102V3.96568H239.439ZM246.759 5.65771H249.295V18.8766H245.966V11.3683L239.756 18.8766H237.219V5.65771H240.549V13.1661L246.759 5.65771ZM261.086 5.65771H264.495V18.8766H261.086V13.8534H255.828V18.8766H252.419V5.65771H255.828V10.6545H261.086V5.65771ZM277.158 5.65771H279.695V18.8766H276.365V11.3683L270.155 18.8766H267.618V5.65771H270.948V13.1661L277.158 5.65771ZM295 18.8766H291.036L286.227 12.8752V18.8766H282.818V5.65771H286.227V11.474L290.772 5.65771H294.841L289.53 12.1879L295 18.8766ZM90.449 32.0956V42.264H89.1074V33.3971H83.2532V42.264H81.9116V32.0956H90.449ZM98.0219 42.508C96.4912 42.508 95.2167 41.9996 94.2004 40.9828C93.184 39.9524 92.6758 38.6847 92.6758 37.1798C92.6758 35.6749 93.184 34.414 94.2004 33.3971C95.2167 32.3668 96.4912 31.8515 98.0219 31.8515C99.025 31.8515 99.9265 32.0956 100.725 32.5837C101.525 33.0582 102.108 33.7022 102.474 34.5157L101.376 35.1461C101.105 34.536 100.664 34.0547 100.055 33.7022C99.459 33.3361 98.7811 33.1531 98.0219 33.1531C96.8978 33.1531 95.9485 33.5463 95.1761 34.3326C94.4036 35.1054 94.0174 36.0545 94.0174 37.1798C94.0174 38.3051 94.4036 39.261 95.1761 40.0473C95.9485 40.8201 96.8978 41.2065 98.0219 41.2065C98.7811 41.2065 99.459 41.0303 100.055 40.6777C100.651 40.3117 101.119 39.8236 101.457 39.2135L102.575 39.8642C102.155 40.6777 101.538 41.3217 100.725 41.7962C99.9123 42.2708 99.0118 42.508 98.0219 42.508ZM111.901 32.0956H113.04V42.264H111.698V34.4343L105.64 42.264H104.502V32.0956H105.844V39.9253L111.901 32.0956ZM124.414 42.264H122.808L119.637 38.0746L116.466 42.264H114.86L118.844 36.9968L115.124 32.0956H116.73L119.637 35.9392L122.544 32.0956H124.149L120.45 36.9968L124.414 42.264ZM134.041 40.9828C133.011 41.9996 131.751 42.508 130.26 42.508C128.769 42.508 127.502 41.9996 126.459 40.9828C125.429 39.9524 124.914 38.6847 124.914 37.1798C124.914 35.6749 125.429 34.414 126.459 33.3971C127.502 32.3668 128.769 31.8515 130.26 31.8515C131.751 31.8515 133.011 32.3668 134.041 33.3971C135.084 34.414 135.606 35.6749 135.606 37.1798C135.606 38.6847 135.084 39.9524 134.041 40.9828ZM127.414 40.0473C128.186 40.8201 129.135 41.2065 130.26 41.2065C131.385 41.2065 132.333 40.8201 133.106 40.0473C133.878 39.261 134.264 38.3051 134.264 37.1798C134.264 36.0545 133.878 35.1054 133.106 34.3326C132.333 33.5463 131.385 33.1531 130.26 33.1531C129.135 33.1531 128.186 33.5463 127.414 34.3326C126.641 35.1054 126.255 36.0545 126.255 37.1798C126.255 38.3051 126.641 39.261 127.414 40.0473ZM145.788 32.0956V42.264H144.446V33.3971H139.852V37.9323C139.852 39.627 139.527 40.7929 138.876 41.4302C138.24 42.0674 137.359 42.3453 136.234 42.264V41.0031C137.006 41.0845 137.575 40.9014 137.941 40.454C138.321 40.0066 138.51 39.166 138.51 37.9323V32.0956H145.788ZM157.147 40.9828C156.117 41.9996 154.857 42.508 153.367 42.508C151.876 42.508 150.608 41.9996 149.565 40.9828C148.535 39.9524 148.021 38.6847 148.021 37.1798C148.021 35.6749 148.535 34.414 149.565 33.3971C150.608 32.3668 151.876 31.8515 153.367 31.8515C154.857 31.8515 156.117 32.3668 157.147 33.3971C158.19 34.414 158.713 35.6749 158.713 37.1798C158.713 38.6847 158.19 39.9524 157.147 40.9828ZM150.521 40.0473C151.293 40.8201 152.241 41.2065 153.367 41.2065C154.491 41.2065 155.44 40.8201 156.212 40.0473C156.985 39.261 157.371 38.3051 157.371 37.1798C157.371 36.0545 156.985 35.1054 156.212 34.3326C155.44 33.5463 154.491 33.1531 153.367 33.1531C152.241 33.1531 151.293 33.5463 150.521 34.3326C149.748 35.1054 149.362 36.0545 149.362 37.1798C149.362 38.3051 149.748 39.261 150.521 40.0473ZM167.461 32.0956V33.3971H162.298V42.264H160.957V32.0956H167.461Z" fill="#3F3D56"/>
<path d="M60.989 22.0962C58.6601 18.908 51.6631 24.0352 43.6681 26.9785C35.6751 29.9198 26.8453 19.9428 25.5941 22.6432C24.3429 25.3436 29.6314 26.5234 34.1463 29.6932C31.2643 31.4771 23.6918 24.5802 22.6283 26.9622C21.5649 29.3442 31.2255 32.9549 35.5955 34.0265C32.3155 36.3983 22.0834 29.832 21.2669 32.3793C20.4505 34.9266 32.9605 38.6537 37.9408 38.7496C35.3261 40.9724 25.7676 37.0147 25.0858 39.8375C24.4041 42.6604 40.386 43.3544 47.9667 40.4988C55.5494 37.6413 63.8976 26.0784 60.989 22.0962ZM55.1698 31.8711C54.8963 32.1629 48.4219 39.0313 44.4682 38.6741C44.209 38.6496 43.9641 38.5986 43.7355 38.519C43.1436 38.3128 42.6598 37.9168 42.2863 37.3392C41.9883 36.8779 41.9189 36.3391 42.0822 35.7818C42.87 33.1141 48.5239 30.5096 49.2485 30.1831C49.5343 30.0545 49.869 30.181 49.9976 30.4647C50.1262 30.7485 49.9996 31.0852 49.7159 31.2138C47.8789 32.0446 43.7151 34.2592 43.1701 36.1023C43.0986 36.3472 43.1191 36.5391 43.2395 36.7269C43.562 37.2269 43.9967 37.4964 44.5703 37.5474C47.3972 37.8025 52.5837 32.9794 54.3431 31.0975C54.5574 30.8689 54.9146 30.8587 55.1432 31.071C55.3718 31.2853 55.3841 31.6425 55.1698 31.8711Z" fill="#3F3D56"/>
<path d="M0.309311 16.8172C-1.903 12.4105 8.20724 2.36788 16.1378 0.789402C24.0683 -0.787037 39.691 2.51695 38.5583 5.19199C37.4257 7.865 28.662 2.39443 25.7245 4.15873C30.6115 5.06947 42.3168 10.7994 41.0986 13.1783C39.8804 15.5573 30.8784 7.40146 27.2605 9.20456C31.3877 10.977 40.3103 16.1229 38.8741 18.3018C37.4379 20.4786 31.1086 12.431 27.9796 13.7195C31.9071 17.5871 36.9205 19.6189 35.248 22.0795C33.5755 24.5381 26.5128 13.2457 18.1606 14.8385C9.80842 16.4313 2.07957 20.3458 0.309311 16.8172Z" fill="#94A2B3"/>
</svg>
